<?xml version="1.0" encoding="UTF-8" standalone="no"?>
<!DOCTYPE svg PUBLIC "-//W3C//DTD SVG 1.1//EN" "http://www.w3.org/Graphics/SVG/1.1/DTD/svg11.dtd">
<svg width="66px" height="66px" version="1.1" xmlns="http://www.w3.org/2000/svg" xmlns:xlink="http://www.w3.org/1999/xlink" xml:space="preserve" xmlns:serif="http://www.serif.com/" style="fill-rule:evenodd;clip-rule:evenodd;stroke-linejoin:round;stroke-miterlimit:2;">
    <g id="Ebene-1" serif:id="Ebene 1">
        <g transform="matrix(1,0,0,1,65.9761,4.4467)">
            <path d="M0,44.377C0,46.831 -2.395,48.824 -5.346,48.824L-60.406,48.824C-63.36,48.824 -65.753,46.831 -65.753,44.377L-65.753,0.002C-65.753,-2.456 -63.359,-4.447 -60.406,-4.447L-5.346,-4.447C-2.395,-4.447 0,-2.456 0,0.002L0,44.377Z" style="fill:white;fill-rule:nonzero;"/>
        </g>
        <g transform="matrix(1,0,0,1,14.1528,40.2098)">
            <path d="M0,-2.889C17.105,-8.569 33.342,-15.951 51.807,-13.142L51.807,8.611C51.807,8.611 52.268,12.443 48.323,13.062L-0.075,12.916L0,-2.889Z" style="fill:rgb(255,211,15);fill-rule:nonzero;"/>
        </g>
        <g transform="matrix(1,0,0,1,47.0581,19.2144)">
            <path d="M0,34.958L-41.488,34.057C-41.488,34.057 -46.96,33.876 -47.034,29.298L-46.882,1.59C-38.439,0 -28.59,2.139 -17.241,6.822C-3.342,12.557 -2,23.022 0,34.958" style="fill:rgb(181,221,245);fill-rule:nonzero;"/>
        </g>
        <g transform="matrix(1,0,0,1,0,65.944)">
            <path d="M0,-34.132L0.023,-4.736L0.036,-4.705C0.159,-0.998 1.771,0 5.361,-0.002L5.36,-0.004L60.646,-0.004C64.386,-0.001 65.974,-1.086 65.974,-5.186L65.974,-30.472C41.494,-13.666 2.89,-32.415 0,-34.132" style="fill:rgb(96,163,216);fill-rule:nonzero;"/>
        </g>
    </g>
    <g transform="matrix(1,0,0,1,13.7607,49.4972)">
        <g id="V">
            <path d="M0,-35.462C-0.245,-36.209 -0.121,-36.92 0.366,-37.601C0.846,-38.285 1.572,-38.753 2.542,-39C3.427,-39.184 4.314,-39.091 5.202,-38.721C6.085,-38.345 6.689,-37.821 7.014,-37.136C8.305,-33.663 9.635,-30.216 11.006,-26.805C12.138,-23.891 13.323,-20.805 14.577,-17.545C15.823,-14.286 16.975,-11.355 18.024,-8.753C18.99,-11.355 20.122,-14.286 21.409,-17.545C22.699,-20.805 23.907,-23.891 25.039,-26.805C26.407,-30.216 27.739,-33.663 29.031,-37.136C29.352,-37.821 29.955,-38.344 30.84,-38.721C31.729,-39.093 32.66,-39.184 33.626,-39C34.594,-38.753 35.323,-38.285 35.799,-37.601C36.289,-36.92 36.367,-36.209 36.045,-35.462L21.53,1.773C21.286,2.33 20.843,2.789 20.199,3.162C19.552,3.537 18.825,3.722 18.022,3.722C17.215,3.722 16.49,3.537 15.84,3.162C15.193,2.789 14.752,2.329 14.513,1.773L0,-35.462Z" style="fill:rgb(1,0,0);fill-rule:nonzero;"/>
        </g>
    </g>
</svg>
